<?xml version="1.0" encoding="UTF-8"?>
<svg width="24px" height="24px" viewBox="0 0 24 24" version="1.1" xmlns="http://www.w3.org/2000/svg">
    <g stroke="none" stroke-width="1" fill="none" fill-rule="evenodd">
        <path d="M16.5,6 L17,6 C19.21,6 21,7.79 21,10 C21,12.21 19.21,14 17,14 L16.5,14 L16.5,16 L17,16 C20.31,16 23,13.31 23,10 C23,6.69 20.31,4 17,4 L16.5,4 L16.5,6 Z M7.5,6 L8,6 C10.21,6 12,7.79 12,10 C12,12.21 10.21,14 8,14 L7.5,14 L7.5,16 L8,16 C11.31,16 14,13.31 14,10 C14,6.69 11.31,4 8,4 L7.5,4 L7.5,6 Z M12,10 C12,8.9 11.1,8 10,8 L8,8 C6.9,8 6,8.9 6,10 C6,11.1 6.9,12 8,12 L10,12 C11.1,12 12,11.1 12,10 Z" fill="#000000"/>
    </g>
</svg> 